<svg width="527" height="303" viewBox="0 0 527 303" fill="none" xmlns="http://www.w3.org/2000/svg">
<g filter="url(#filter0_d_108_7)">
<path d="M487.845 277.826C487.704 283.139 486.825 288.406 485.234 293.471C485.198 293.588 485.159 293.704 485.121 293.822H475.376C475.386 293.716 475.397 293.599 475.407 293.471C476.057 285.908 472.345 240.426 467.866 232.554C468.258 233.192 488.601 253.794 487.845 277.826Z" fill="#C6E9E5"/>
<path d="M487.114 293.471C487.032 293.589 486.948 293.706 486.861 293.822H479.55C479.605 293.722 479.67 293.604 479.744 293.471C480.952 291.264 484.526 284.666 487.844 277.826C491.409 270.475 494.682 262.845 494.406 260.084C494.491 260.706 496.959 279.692 487.114 293.471Z" fill="#C6E9E5"/>
<path d="M30.9684 281.941C31.0728 285.888 31.7257 289.799 32.9079 293.561C32.9341 293.648 32.9632 293.734 32.9915 293.822H40.2289C40.2213 293.743 40.2135 293.656 40.2059 293.561C39.7233 287.944 42.4801 254.165 45.8067 248.318C45.5152 248.793 30.4072 264.094 30.9684 281.941Z" fill="#C6E9E5"/>
<path d="M31.5115 293.561C31.5721 293.649 31.635 293.736 31.6995 293.822H37.1291C37.088 293.748 37.0403 293.66 36.985 293.561C36.0881 291.922 33.4333 287.022 30.969 281.942C28.3218 276.482 25.8911 270.816 26.0958 268.765C26.0323 269.227 24.1997 283.328 31.5115 293.561Z" fill="#C6E9E5"/>
<path d="M384.55 206.927C329.888 183.472 280.435 184.364 233.854 198.68C162.083 185.988 112.937 187.952 81.4121 206.927V148.016H384.55V206.927Z" fill="#9EBCDF"/>
<path d="M384.55 190.726C334.19 167.623 283.892 166.131 232.835 190.726C180.541 175.481 129.987 175.641 81.1211 190.726V11.635C133.076 -4.06547 183.614 -3.68818 232.835 11.635C284.829 -3.63525 335.446 -4.11955 384.55 11.635V190.726Z" fill="#C6E9E5"/>
<path d="M94.7682 33.86L93.0742 29.47C93.7382 29.2074 109.603 22.9975 132.886 19.8299C154.411 16.9007 186.482 16.2014 217.027 29.5L215.188 33.8297C185.665 20.9762 154.542 21.653 133.632 24.4836C110.873 27.5652 94.9266 33.7972 94.7682 33.86Z" fill="white"/>
<path d="M94.7682 50.3553L93.0742 45.9655C93.7382 45.7028 109.603 39.4929 132.886 36.3253C154.411 33.3964 186.482 32.6971 217.027 45.9954L215.188 50.3251C185.665 37.4716 154.542 38.1479 133.632 40.979C110.873 44.0606 94.9266 50.2926 94.7682 50.3553Z" fill="white"/>
<path d="M94.7682 66.8507L93.0742 62.4608C93.7382 62.1981 109.603 55.9883 132.886 52.8206C154.411 49.8914 186.482 49.1921 217.027 62.4907L215.188 66.8205C185.665 53.9669 154.542 54.6432 133.632 57.4743C110.873 60.5559 94.9266 66.788 94.7682 66.8507Z" fill="white"/>
<path d="M94.7682 83.3461L93.0742 78.9562C93.7382 78.6936 109.603 72.4837 132.886 69.316C154.411 66.3874 186.482 65.6872 217.027 78.9861L215.188 83.3159C185.665 70.4623 154.542 71.1389 133.632 73.9697C110.873 77.0513 94.9266 83.2834 94.7682 83.3461Z" fill="white"/>
<path d="M94.7682 99.8409L93.0742 95.451C93.7382 95.1884 109.603 88.9785 132.886 85.8108C154.411 82.8817 186.482 82.1824 217.027 95.4809L215.188 99.8107C185.665 86.9569 154.542 87.6337 133.632 90.4645C110.873 93.5462 94.9266 99.7782 94.7682 99.8409Z" fill="white"/>
<path d="M94.7682 116.336L93.0742 111.946C93.7382 111.684 109.603 105.474 132.886 102.306C154.411 99.3776 186.482 98.6777 217.027 111.976L215.188 116.306C185.665 103.452 154.542 104.129 133.632 106.96C110.873 110.042 94.9266 116.274 94.7682 116.336Z" fill="white"/>
<path d="M246.628 151.094L244.934 146.704C245.598 146.442 261.463 140.232 284.746 137.064C306.271 134.135 338.342 133.436 368.887 146.734L367.048 151.064C337.525 138.21 306.402 138.887 285.492 141.718C262.732 144.799 246.786 151.031 246.628 151.094Z" fill="#9EBCDF"/>
<path d="M245.199 119.437V29.3435L246.833 28.8268C288.227 15.7348 329.42 15.7374 369.268 28.8346L370.877 29.3633V119.317L367.728 118.113C326.26 102.267 286.119 102.258 248.418 118.085L245.199 119.437ZM306.62 101.498C326.103 101.498 345.97 105.175 366.222 112.529V32.7962C328.336 20.6989 289.2 20.7055 249.854 32.8155V112.42C267.933 105.208 287.189 101.503 306.62 101.498Z" fill="white"/>
<path d="M366.319 148.76L366.928 133.766L387.843 91.6622C388.433 90.4652 389.394 89.4973 390.58 88.9071C391.306 88.5404 392.097 88.324 392.907 88.2705C393.716 88.2169 394.528 88.3274 395.295 88.5954C396.184 88.9056 396.989 89.4193 397.649 90.0966C398.309 90.7738 398.806 91.5963 399.101 92.4998C399.227 92.89 399.315 93.2915 399.365 93.6989C399.514 94.9079 399.303 96.1344 398.759 97.2211L377.816 139.382L366.319 148.76Z" fill="#9EBCDF"/>
<path d="M393.185 88.5532L370.481 134.257L368.75 133.375L390.709 89.1717C391.478 88.7816 392.324 88.5703 393.185 88.5532Z" fill="#3F3D56"/>
<path d="M399.077 93.7363L377.239 137.698L375.508 136.816L398.164 91.2075C398.443 91.6379 398.665 92.1034 398.824 92.5922C398.944 92.9644 399.029 93.3476 399.077 93.7363Z" fill="#3F3D56"/>
<path d="M396.903 89.8134L373.948 136.022L372.218 135.141L395.2 88.874C395.445 88.9589 395.684 89.0607 395.915 89.1787C396.264 89.3569 396.595 89.5695 396.903 89.8134Z" fill="#3F3D56"/>
<path d="M368.944 146.241L366.635 148.124L366.828 143.158C367.621 143.437 368.48 144.646 368.944 146.241Z" fill="#3F3D56"/>
<path d="M141.125 200.361L138.359 191.868L141.305 163.944C141.386 163.151 141.722 162.407 142.261 161.826C142.59 161.467 142.987 161.179 143.427 160.977C143.868 160.775 144.343 160.664 144.827 160.651C145.386 160.635 145.942 160.751 146.451 160.988C146.959 161.226 147.406 161.579 147.758 162.021C147.909 162.212 148.041 162.417 148.154 162.633C148.487 163.276 148.623 164.005 148.545 164.727L145.595 192.689L141.125 200.361Z" fill="#9EBCDF"/>
<path d="M143.641 161.075L140.443 191.387L139.295 191.263L142.388 161.946C142.736 161.565 143.164 161.267 143.641 161.075Z" fill="#3F3D56"/>
<path d="M148 162.715L144.925 191.872L143.777 191.748L146.968 161.499C147.212 161.679 147.433 161.892 147.623 162.131C147.767 162.313 147.893 162.509 148 162.715Z" fill="#3F3D56"/>
<path d="M145.975 160.989L142.742 191.636L141.594 191.512L144.831 160.826C144.986 160.822 145.14 160.828 145.293 160.844C145.525 160.87 145.753 160.918 145.975 160.989Z" fill="#3F3D56"/>
<path d="M142.067 198.398L141.169 199.939L140.249 197.128C140.749 197.115 141.478 197.607 142.067 198.398Z" fill="#3F3D56"/>
<path d="M440.635 190.402C440.32 190.96 439.9 191.449 439.398 191.842C438.896 192.236 438.322 192.525 437.71 192.694C436.474 193.035 435.154 192.865 434.041 192.221C432.929 191.577 432.114 190.511 431.777 189.259C431.441 188.007 431.609 186.671 432.245 185.545C432.256 185.525 432.267 185.506 432.278 185.488C432.413 185.258 432.565 185.04 432.733 184.834L428.668 155.498L428.546 154.619L427.72 148.633L427.599 147.771L428.049 147.792L435.924 148.156L438.036 148.253L438.301 153.714L439.799 184.416C440.581 185.174 441.089 186.176 441.241 187.262C441.393 188.348 441.179 189.454 440.635 190.402H440.635Z" fill="#FFB8B8"/>
<path d="M428.569 154.885L438.57 153.957C439.089 153.907 439.567 153.652 439.901 153.246C440.234 152.841 440.396 152.319 440.351 151.793L438.498 130.736C438.32 128.708 437.352 126.835 435.809 125.529C434.267 124.223 432.275 123.591 430.272 123.772C428.269 123.953 426.419 124.933 425.129 126.495C423.839 128.057 423.215 130.074 423.393 132.102C423.406 132.247 423.423 132.391 423.444 132.535L426.443 153.189C426.512 153.662 426.746 154.095 427.103 154.408C427.461 154.721 427.917 154.893 428.39 154.894C428.45 154.895 428.51 154.892 428.569 154.885Z" fill="#9EBCDF"/>
<path d="M436.15 137.874C437.161 134.973 437.208 131.817 436.283 128.887C435.358 125.956 433.512 123.412 431.027 121.643C427.256 119.03 422.095 118.092 416.538 124.791C409.812 132.969 405.016 142.591 402.511 152.926L425.271 156.678C425.271 156.678 433.01 147.098 436.15 137.874Z" fill="#9EBCDF"/>
<path d="M399.34 288.788H392.85L389.764 263.446H399.341L399.34 288.788Z" fill="#FFB8B8"/>
<path d="M380.338 294.889H400.732V286.911H388.217C386.127 286.911 384.123 287.751 382.645 289.247C381.168 290.744 380.338 292.773 380.338 294.889Z" fill="black"/>
<path d="M452.688 283.058L446.527 285.12L435.74 262.04L444.834 258.996L452.688 283.058Z" fill="#FFB8B8"/>
<path d="M436.536 294.889L455.9 288.408L453.427 280.833L441.545 284.81C439.56 285.474 437.918 286.909 436.979 288.799C436.039 290.689 435.88 292.88 436.536 294.889Z" fill="black"/>
<path d="M421.863 114.998C429.042 114.998 434.862 109.105 434.862 101.836C434.862 94.5663 429.042 88.6733 421.863 88.6733C414.683 88.6733 408.863 94.5663 408.863 101.836C408.863 109.105 414.683 114.998 421.863 114.998Z" fill="#FFB8B8"/>
<path d="M410.481 281.734L416.506 241.463C416.571 241.034 416.781 240.64 417.1 240.349C417.419 240.059 417.828 239.89 418.257 239.871C418.686 239.852 419.108 239.984 419.451 240.245C419.794 240.507 420.037 240.88 420.138 241.303L429.315 279.68C429.46 280.268 429.816 280.78 430.314 281.116C430.813 281.451 431.417 281.586 432.008 281.494L457.321 277.375C457.657 277.321 457.977 277.194 458.26 277.004C458.544 276.813 458.783 276.564 458.964 276.272C459.144 275.98 459.26 275.652 459.305 275.311C459.35 274.97 459.322 274.623 459.223 274.294L426.216 164.111C426.123 163.798 426.111 163.466 426.184 163.147L427.283 158.324C427.403 157.801 427.348 157.252 427.124 156.765C426.901 156.278 426.523 155.881 426.051 155.637C421.556 153.315 410.173 148.487 401.582 153.775C401.303 153.947 401.061 154.175 400.872 154.445C400.683 154.714 400.55 155.02 400.481 155.344L374.697 278.05C374.627 278.383 374.627 278.728 374.698 279.062C374.77 279.395 374.91 279.71 375.11 279.984C375.31 280.258 375.565 280.487 375.859 280.654C376.153 280.821 376.478 280.923 376.814 280.954L407.913 283.774C407.984 283.78 408.054 283.783 408.125 283.783C408.694 283.782 409.244 283.575 409.676 283.199C410.108 282.823 410.393 282.303 410.479 281.734L410.481 281.734Z" fill="black"/>
<path d="M430.483 92.5362C429.503 91.9393 428.633 91.174 427.913 90.2746C427.557 89.8202 427.323 89.2808 427.234 88.7082C427.144 88.1357 427.201 87.5493 427.4 87.0056C428.056 85.5383 430.008 85.0764 431.521 85.5742C433.033 86.0721 434.201 87.2741 435.307 88.4322C436.28 89.4504 437.281 90.518 437.741 91.8572C438.201 93.1964 437.966 94.8947 436.817 95.7076C435.69 96.5051 434.069 96.1787 432.985 95.3224C431.962 94.386 431.145 93.2409 430.59 91.9623L430.483 92.5362Z" fill="black"/>
<path d="M434.886 88.7858C434.958 85.0773 439.133 82.4176 442.739 83.0752C446.345 83.7327 449.116 86.8453 450.503 90.2783C453.435 97.5318 451.234 105.808 448.41 113.108C445.586 120.407 442.09 127.813 442.503 135.639C442.782 139.869 444.184 143.944 446.561 147.434C448.938 150.925 452.202 153.7 456.007 155.467C451.938 157.335 447.074 155.406 443.654 152.494C436.06 146.029 433.129 134.517 436.689 125.139C438.444 120.514 441.538 116.557 443.954 112.248C446.37 107.938 448.142 102.86 446.895 98.0682C445.647 93.2767 440.339 89.3978 435.802 91.2515L434.886 88.7858Z" fill="black"/>
<path d="M421.083 107.677C422.216 105.738 423.359 103.192 421.289 101.497C420.838 101.145 420.323 100.888 419.773 100.741C419.223 100.594 418.65 100.559 418.086 100.64C415.751 100.925 413.208 101.042 410.947 100.183C410.1 99.8877 409.319 99.4228 408.652 98.816C407.985 98.2093 407.445 97.473 407.065 96.6509C405.901 93.8514 407.359 90.4495 409.799 88.6799C411.291 87.6366 413.055 87.0628 414.868 87.0303C416.681 86.9978 418.464 87.5081 419.992 88.4972C423.152 87.084 426.985 87.7126 429.856 89.6579C432.727 91.6032 434.691 94.7185 435.758 98.0448C436.741 100.908 436.91 103.993 436.247 106.949C435.713 109.005 434.697 110.901 433.286 112.475C431.875 114.05 430.11 115.257 428.14 115.994C427.373 116.301 426.54 116.398 425.724 116.275C424.908 116.153 424.138 115.816 423.492 115.298C422.441 114.343 421.634 113.146 421.14 111.807C420.708 110.34 420.478 108.713 421.083 107.677Z" fill="black"/>
<path d="M382.518 119.421C382.583 119.71 382.626 120.004 382.645 120.3L405.381 133.581L410.908 130.36L416.799 138.169L407.563 144.834C406.817 145.373 405.918 145.652 405.002 145.629C404.086 145.607 403.201 145.284 402.482 144.709L379.035 125.981C377.976 126.378 376.823 126.439 375.73 126.157C374.636 125.874 373.653 125.261 372.912 124.399C372.171 123.537 371.707 122.467 371.581 121.332C371.455 120.196 371.674 119.048 372.208 118.042C372.743 117.035 373.567 116.217 374.571 115.696C375.576 115.175 376.714 114.976 377.832 115.126C378.951 115.276 379.999 115.767 380.835 116.534C381.672 117.302 382.258 118.309 382.515 119.421L382.518 119.421Z" fill="#FFB8B8"/>
<path d="M406.142 134.21L413.491 143.853C413.7 144.127 413.965 144.353 414.267 144.514C414.57 144.675 414.904 144.768 415.245 144.787C415.586 144.806 415.928 144.75 416.246 144.624C416.565 144.497 416.852 144.303 417.09 144.053L425.408 135.307C426.108 134.783 426.699 134.124 427.147 133.368C427.595 132.612 427.891 131.775 428.018 130.903C428.146 130.031 428.102 129.142 427.89 128.288C427.678 127.433 427.301 126.629 426.781 125.922C426.261 125.215 425.609 124.619 424.861 124.168C424.114 123.716 423.286 123.419 422.424 123.292C421.563 123.166 420.685 123.212 419.842 123.43C418.998 123.647 418.205 124.031 417.509 124.559C417.437 124.613 417.366 124.669 417.296 124.726L406.863 130.633C406.564 130.802 406.305 131.034 406.103 131.314C405.901 131.594 405.761 131.914 405.693 132.254C405.624 132.593 405.629 132.944 405.706 133.282C405.783 133.619 405.931 133.936 406.14 134.21H406.142Z" fill="#9EBCDF"/>
<path d="M125.344 287.965L132.397 287.965L135.753 260.417L125.343 260.418L125.344 287.965Z" fill="#A0616A"/>
<path d="M123.544 285.633L137.436 285.633H137.436C139.784 285.633 142.036 286.577 143.696 288.258C145.356 289.939 146.289 292.219 146.289 294.596V294.887L123.545 294.888L123.544 285.633Z" fill="black"/>
<path d="M70.4204 284.874L77.3949 285.941L84.7802 259.211L75.6366 257.635L70.4204 284.874Z" fill="#A0616A"/>
<path d="M68.9854 282.296L82.7209 284.398L82.7214 284.398C85.0429 284.754 87.1298 286.028 88.5231 287.941C89.9165 289.855 90.5022 292.25 90.1514 294.601L90.1084 294.889L67.6194 291.447L68.9854 282.296Z" fill="black"/>
<path d="M92.1689 151.444L100.001 153.522L99.4798 166.379L99.4153 189.787C100.187 190.327 100.778 191.092 101.111 191.98C101.444 192.868 101.503 193.838 101.28 194.76C101.057 195.683 100.563 196.515 99.8621 197.147C99.1617 197.779 98.2882 198.181 97.3574 198.299C96.4265 198.418 95.4821 198.247 94.649 197.811C93.8159 197.374 93.1334 196.691 92.6918 195.853C92.2503 195.015 92.0704 194.061 92.176 193.117C92.2817 192.173 92.6678 191.284 93.2834 190.567L90.8767 167.073L92.1689 151.444Z" fill="#A0616A"/>
<path d="M90.8057 136.718C90.8489 135.476 91.2446 134.272 91.9455 133.251C92.6464 132.23 93.6228 131.435 94.758 130.961C95.8206 130.48 96.999 130.323 98.1484 130.51C99.2977 130.698 100.368 131.22 101.228 132.015C101.846 132.574 102.336 133.263 102.665 134.034C102.993 134.805 103.151 135.639 103.128 136.477C103.148 144.009 101.469 154.987 101.452 155.097L101.425 155.272L89.9775 159.175L90.8057 136.718Z" fill="#9EBCDF"/>
<path d="M111.275 158.098L128.784 153.509L136.878 181.109L137.166 283.93L123.776 283.845L118.179 200.625L82.5068 277.522L68.1228 275.774L99.4799 193.343C99.4799 193.343 97.7538 178.779 103.22 171.497L102.069 163.923L111.275 158.098Z" fill="black"/>
<path d="M99.4684 164.965C99.2236 164.664 99.0458 164.312 98.947 163.935C98.8482 163.558 98.8308 163.164 98.896 162.78L90.9092 138.519C90.5364 137.385 90.4967 136.166 90.7952 135.01C91.0937 133.853 91.7173 132.809 92.5905 132.005L96.0577 128.814L98.4073 119.298L111.912 122.64L110.799 127.146L116.911 126.022L129.784 155.052L102.876 165.942L101.551 165.963C101.152 165.963 100.759 165.874 100.398 165.702C100.038 165.529 99.7205 165.277 99.4684 164.965Z" fill="#9EBCDF"/>
<path d="M118.212 144.481L125.928 141.999L132.275 153.146L144.579 172.965C145.516 173.004 146.42 173.33 147.17 173.9C147.92 174.471 148.482 175.258 148.78 176.159C149.079 177.059 149.1 178.03 148.842 178.943C148.584 179.857 148.058 180.669 147.333 181.273C146.609 181.877 145.721 182.244 144.786 182.325C143.852 182.407 142.914 182.2 142.099 181.73C141.283 181.261 140.627 180.552 140.218 179.697C139.809 178.842 139.666 177.882 139.808 176.943L125.371 158.389L118.212 144.481Z" fill="#A0616A"/>
<path d="M109.286 132.773C108.666 131.699 108.365 130.468 108.419 129.226C108.472 127.984 108.878 126.784 109.587 125.769C110.231 124.787 111.144 124.017 112.214 123.554C113.284 123.09 114.465 122.952 115.611 123.158C116.429 123.296 117.207 123.613 117.891 124.087C118.575 124.56 119.149 125.18 119.573 125.901C123.566 132.255 127.943 142.442 127.986 142.544L128.056 142.706L120.441 152.201L109.286 132.773Z" fill="#9EBCDF"/>
<path d="M108.399 117.527C114.325 117.527 119.129 112.663 119.129 106.663C119.129 100.663 114.325 95.7988 108.399 95.7988C102.473 95.7988 97.6689 100.663 97.6689 106.663C97.6689 112.663 102.473 117.527 108.399 117.527Z" fill="#A0616A"/>
<path d="M89.4369 102.081C95.145 102.081 99.7724 97.3953 99.7724 91.6157C99.7724 85.8361 95.145 81.1509 89.4369 81.1509C83.7287 81.1509 79.1013 85.8361 79.1013 91.6157C79.1013 97.3953 83.7287 102.081 89.4369 102.081Z" fill="black"/>
<path d="M80.522 100.281C81.8597 101.26 83.4096 101.9 85.0418 102.149C86.6741 102.397 88.3414 102.245 89.9041 101.707C91.4668 101.169 92.8795 100.26 94.0241 99.0562C95.1686 97.8521 96.0117 96.3879 96.4828 94.7862C96.3046 96.2216 95.8343 97.6039 95.1018 98.846C94.3692 100.088 93.3903 101.163 92.2268 102.003C91.0633 102.842 89.7405 103.429 88.3419 103.725C86.9433 104.02 85.4993 104.02 84.101 103.722C82.7028 103.424 81.3807 102.836 80.2182 101.995C79.0556 101.154 78.078 100.078 77.3469 98.8353C76.6158 97.5924 76.1472 96.2094 75.9706 94.7738C75.794 93.3383 75.9133 91.8812 76.321 90.4946C76.0894 92.3575 76.3573 94.249 77.0965 95.971C77.8356 97.6929 79.0189 99.1816 80.522 100.281Z" fill="black"/>
<path d="M121.311 100.293C119.506 97.022 118.816 95.6558 116.489 93.667C114.432 91.908 111.902 91.3915 109.86 93.0581C107.446 92.0018 104.759 91.7623 102.199 92.3751C99.6398 92.988 97.3435 94.4205 95.652 96.4599C93.9604 98.4993 92.9636 101.037 92.8098 103.695C92.6559 106.354 93.3532 108.992 94.798 111.218C96.2428 113.443 98.358 115.137 100.83 116.049C103.301 116.96 105.997 117.04 108.517 116.276C111.037 115.513 113.246 113.946 114.817 111.81C116.388 109.674 117.236 107.082 117.236 104.418C117.234 103.951 117.206 103.484 117.152 103.019C118.927 102.767 119.536 100.545 121.311 100.293Z" fill="black"/>
<path d="M226.262 295H4.58184C4.42753 295 4.27953 294.938 4.17042 294.827C4.0613 294.717 4 294.567 4 294.411C4 294.255 4.0613 294.105 4.17042 293.994C4.27953 293.884 4.42753 293.822 4.58184 293.822H226.262C226.417 293.822 226.565 293.884 226.674 293.994C226.783 294.105 226.844 294.255 226.844 294.411C226.844 294.567 226.783 294.717 226.674 294.827C226.565 294.938 226.417 295 226.262 295Z" fill="#9EBCDF"/>
<path d="M522.418 295H300.738C300.583 295 300.435 294.938 300.326 294.827C300.217 294.717 300.156 294.567 300.156 294.411C300.156 294.255 300.217 294.105 300.326 293.994C300.435 293.884 300.583 293.822 300.738 293.822H522.418C522.572 293.822 522.72 293.884 522.83 293.994C522.939 294.105 523 294.255 523 294.411C523 294.567 522.939 294.717 522.83 294.827C522.72 294.938 522.572 295 522.418 295Z" fill="#9EBCDF"/>
<path d="M233.417 11.6353H232.254V190.16H233.417V11.6353Z" fill="#9EBCDF"/>
</g>
<defs>
<filter id="filter0_d_108_7" x="0" y="0" width="527" height="303" filterUnits="userSpaceOnUse" color-interpolation-filters="sRGB">
<feFlood flood-opacity="0" result="BackgroundImageFix"/>
<feColorMatrix in="SourceAlpha" type="matrix" values="0 0 0 0 0 0 0 0 0 0 0 0 0 0 0 0 0 0 127 0" result="hardAlpha"/>
<feOffset dy="4"/>
<feGaussianBlur stdDeviation="2"/>
<feComposite in2="hardAlpha" operator="out"/>
<feColorMatrix type="matrix" values="0 0 0 0 0 0 0 0 0 0 0 0 0 0 0 0 0 0 0.25 0"/>
<feBlend mode="normal" in2="BackgroundImageFix" result="effect1_dropShadow_108_7"/>
<feBlend mode="normal" in="SourceGraphic" in2="effect1_dropShadow_108_7" result="shape"/>
</filter>
</defs>
</svg>
