<svg width="447" height="300" viewBox="0 0 447 300" fill="none" xmlns="http://www.w3.org/2000/svg">
<g clip-path="url(#clip0_110_201)">
<path d="M342.234 296.607C336.511 291.179 333.035 282.604 333.946 274.256C334.858 265.907 340.504 258.233 347.828 256.46C355.152 254.687 363.501 259.595 365.726 267.626C366.95 252.142 368.361 236.009 375.694 222.823C382.334 210.883 393.835 202.34 406.3 200.811C418.765 199.283 431.888 205.055 439.662 216.099C447.436 227.143 449.339 243.199 443.895 255.879C439.884 265.219 432.495 272.171 424.752 277.826C399.735 295.946 369.73 303.315 340.257 298.576L342.234 296.607Z" fill="#C6E9E5"/>
<path d="M427.336 205.375C417.051 214.779 407.616 225.297 399.167 236.776C385.944 254.679 375.244 274.752 367.439 296.295C366.868 297.867 369.141 298.551 369.706 296.997C382.476 261.985 402.861 231.125 428.999 207.241C430.172 206.169 428.5 204.311 427.336 205.375Z" fill="white"/>
<path d="M143.897 295.133C151.757 287.677 156.531 275.899 155.279 264.432C154.027 252.966 146.272 242.425 136.212 239.99C126.153 237.555 114.686 244.296 111.63 255.327C109.949 234.059 108.011 211.901 97.9387 193.789C88.8182 177.39 73.0215 165.656 55.9013 163.556C38.7811 161.457 20.7558 169.386 10.0786 184.555C-0.598618 199.724 -3.21289 221.777 4.26515 239.192C9.77397 252.021 19.9231 261.569 30.557 269.336C64.4825 294.117 106.567 304.452 146.611 297.837" fill="#C6E9E5"/>
<path d="M27.0085 169.825C41.1348 182.741 54.0941 197.187 65.6991 212.954C77.3059 228.704 87.5245 245.681 96.2113 263.647C101.067 273.724 105.429 284.092 109.277 294.704C110.062 296.862 106.939 297.802 106.163 295.667C99.3466 276.959 90.9128 259.046 80.983 242.185C71.1015 225.385 59.7915 209.701 47.212 195.352C40.097 187.241 32.5901 179.575 24.7252 172.388C23.1132 170.915 25.4098 168.364 27.0085 169.825L27.0085 169.825Z" fill="white"/>
<path d="M320.864 299.343H133.329V83.3432C133.329 37.3875 166.634 0 207.572 0H246.621C287.558 0 320.864 37.3875 320.864 83.3432V299.343Z" fill="#C6E9E5"/>
<path d="M281.816 299.344H133.329V83.3434C133.288 65.7342 138.256 48.5701 147.508 34.3501C147.849 33.8282 148.189 33.3131 148.54 32.8037C153.015 26.2147 158.341 20.4119 164.341 15.5868C164.68 15.3099 165.02 15.0379 165.366 14.7658C170.387 10.8654 175.818 7.67684 181.536 5.27279C181.876 5.12831 182.221 4.98355 182.567 4.84471C187.738 2.77299 193.099 1.35388 198.55 0.61357C198.888 0.561747 199.235 0.521195 199.582 0.480642C204.894 -0.156959 210.252 -0.156959 215.564 0.480642C215.91 0.521195 216.257 0.561742 216.599 0.614124C222.048 1.35448 227.408 2.77342 232.578 4.84473C232.924 4.98358 233.269 5.12833 233.61 5.27308C239.257 7.64681 244.625 10.7878 249.592 14.6259C249.937 14.892 250.283 15.1641 250.623 15.4361C253.986 18.1312 257.146 21.1337 260.068 24.4129C262.412 27.0433 264.596 29.847 266.606 32.8054C266.956 33.3132 267.296 33.8283 267.637 34.3493C276.889 48.5694 281.857 65.7339 281.816 83.3434V299.344Z" fill="#9EBCDF"/>
<path d="M269.741 202.734C274.281 202.734 277.962 198.603 277.962 193.506C277.962 188.409 274.281 184.278 269.741 184.278C265.201 184.278 261.521 188.409 261.521 193.506C261.521 198.603 265.201 202.734 269.741 202.734Z" fill="#E5E5E5"/>
<path d="M305.501 292.874H299.202L296.205 265.6L305.502 265.6L305.501 292.874Z" fill="#FFB8B8"/>
<path d="M294.703 290.853H306.851V299.439H287.054C287.054 298.312 287.252 297.195 287.636 296.153C288.02 295.112 288.584 294.165 289.294 293.368C290.004 292.571 290.847 291.938 291.775 291.507C292.703 291.075 293.698 290.853 294.703 290.853Z" fill="black"/>
<path d="M336.842 292.874H330.543L327.546 265.6L336.843 265.6L336.842 292.874Z" fill="#FFB8B8"/>
<path d="M326.044 290.853H338.192V299.439H318.395C318.395 298.312 318.593 297.195 318.977 296.153C319.362 295.112 319.925 294.165 320.635 293.368C321.346 292.571 322.189 291.938 323.117 291.507C324.045 291.075 325.039 290.853 326.044 290.853Z" fill="black"/>
<path d="M273.902 195.334C273.449 194.585 273.147 193.733 273.019 192.838C272.891 191.944 272.939 191.029 273.16 190.158C273.381 189.287 273.77 188.48 274.298 187.796C274.827 187.112 275.482 186.566 276.219 186.196L297.632 119.945L308.168 126.4L283.72 189.712C284.19 191.143 284.177 192.717 283.682 194.138C283.187 195.558 282.245 196.725 281.035 197.418C279.825 198.111 278.43 198.282 277.116 197.898C275.801 197.514 274.657 196.602 273.902 195.334Z" fill="#FFB8B8"/>
<path d="M333.625 207.783C332.925 207.333 332.321 206.715 331.857 205.975C331.392 205.234 331.078 204.388 330.936 203.496C330.795 202.604 330.829 201.689 331.036 200.813C331.244 199.938 331.62 199.125 332.138 198.43L325.505 128.347L337.496 128.962L340.252 197.898C341.234 198.952 341.837 200.374 341.947 201.894C342.057 203.414 341.667 204.927 340.85 206.145C340.033 207.364 338.846 208.204 337.515 208.505C336.183 208.807 334.799 208.55 333.625 207.783Z" fill="#FFB8B8"/>
<path d="M314.496 107.673C321.465 107.673 327.115 101.331 327.115 93.5074C327.115 85.6837 321.465 79.3413 314.496 79.3413C307.526 79.3413 301.876 85.6837 301.876 93.5074C301.876 101.331 307.526 107.673 314.496 107.673Z" fill="#FFB8B8"/>
<path d="M333.544 191.844H295.499L295.545 191.512C295.613 191.015 302.325 141.657 297.375 125.509C296.878 123.922 296.922 122.185 297.497 120.632C298.073 119.079 299.14 117.82 300.493 117.098H300.493C307.569 113.357 321.152 108.751 332.616 119.929C334.303 121.601 335.62 123.691 336.464 126.033C337.307 128.375 337.654 130.905 337.476 133.423L333.544 191.844Z" fill="#E5E5E5"/>
<path d="M302.806 148.951L285.678 145.05L293.707 123.693C294.187 121.624 295.379 119.854 297.021 118.77C298.662 117.687 300.62 117.378 302.464 117.913C304.307 118.447 305.887 119.78 306.856 121.621C307.826 123.461 308.105 125.657 307.634 127.729L302.806 148.951Z" fill="#E5E5E5"/>
<path d="M324.743 156.194L323.713 129.696C322.932 124.715 325.473 120.006 329.379 119.236C333.287 118.47 337.102 121.924 337.887 126.942L341.757 151.701L324.743 156.194Z" fill="#E5E5E5"/>
<path d="M332.278 188.672C338.4 214.844 339.068 248.119 337.416 284.416L329.195 283.262L314.295 214.05L306.075 284.416L296.826 283.839C294.064 245.755 291.373 213.06 295.799 191.556L332.278 188.672Z" fill="black"/>
<path d="M322.811 104.455C320.457 107.27 316.085 105.759 315.778 101.913C315.754 101.615 315.756 101.314 315.783 101.016C315.941 99.3124 316.818 97.7658 316.608 95.9671C316.561 95.5194 316.412 95.0928 316.176 94.7277C314.301 91.9077 309.897 95.989 308.126 93.4361C307.041 91.8708 308.317 89.4061 307.484 87.6566C306.384 85.3474 303.127 86.4866 301.085 85.2219C298.813 83.8149 298.949 79.9011 300.444 77.5205C302.269 74.6173 305.467 73.0682 308.626 72.8449C311.784 72.6216 314.921 73.5801 317.87 74.8702C321.22 76.336 324.543 78.3617 326.605 81.6689C329.112 85.6908 329.354 91.0979 328.1 95.8007C327.337 98.6615 324.733 102.156 322.811 104.455Z" fill="black"/>
<path d="M431.577 299.714H52.2462C52.0843 299.714 51.9291 299.641 51.8148 299.512C51.7004 299.384 51.6362 299.209 51.6362 299.028C51.6362 298.846 51.7004 298.671 51.8148 298.543C51.9291 298.414 52.0843 298.341 52.2462 298.341H431.577C431.739 298.341 431.894 298.414 432.008 298.543C432.122 298.671 432.187 298.846 432.187 299.028C432.187 299.209 432.122 299.384 432.008 299.512C431.894 299.641 431.739 299.714 431.577 299.714Z" fill="#3F3D56"/>
<path d="M240.969 236.764H174.176C173.296 236.769 172.451 236.382 171.825 235.689C171.199 234.995 170.843 234.051 170.836 233.064V65.7027C170.843 64.7152 171.199 63.7711 171.825 63.0774C172.451 62.3837 173.296 61.9972 174.176 62.0025H240.969C241.849 61.9972 242.694 62.3837 243.321 63.0774C243.947 63.7711 244.302 64.7152 244.309 65.7027V233.064C244.302 234.051 243.947 234.995 243.321 235.689C242.694 236.382 241.849 236.769 240.969 236.764Z" fill="white"/>
<path d="M244.308 116.155H170.836V117.309H244.308V116.155Z" fill="#9EBCDF"/>
<path d="M244.566 181.971H171.093V183.124H244.566V181.971Z" fill="#9EBCDF"/>
<path d="M194.985 62.0029H193.957V237.341H194.985V62.0029Z" fill="#9EBCDF"/>
<path d="M220.674 62.0029H219.646V237.341H220.674V62.0029Z" fill="#9EBCDF"/>
</g>
<defs>
<clipPath id="clip0_110_201">
<rect width="447" height="300" fill="white"/>
</clipPath>
</defs>
</svg>
